<?xml version="1.0"?>
<svg width="16" height="16" xmlns="http://www.w3.org/2000/svg" xmlns:svg="http://www.w3.org/2000/svg">
 <g class="layer">
  <title>Layer 1</title>
  <path d="m14.5,1l-13,0l-0.5,0.5l0,13l0.5,0.5l13,0l0.5,-0.5l0,-13l-0.5,-0.5zm-0.5,13l-9,0l0,-2l2.3,0c0.3,0.6 1,1 1.7,1c1.1,0 2,-0.9 2,-2s-0.9,-2 -2,-2s-2,0.9 -2,2l-3,0l0,3l-2,0l0,-12l2,0l0,2.3c-0.6,0.3 -1,1 -1,1.7c0,1.1 0.9,2 2,2s2,-0.9 2,-2l2,0c0,1.1 0.9,2 2,2s2,-0.9 2,-2s-0.9,-2 -2,-2c-0.7,0 -1.4,0.4 -1.7,1l-2.6,0c-0.3,-0.6 -1,-1 -1.7,-1l0,-2l9,0l0,12zm-6,-3c0,-0.6 0.4,-1 1,-1s1,0.4 1,1s-0.4,1 -1,1s-1,-0.4 -1,-1zm-3,-6c0.6,0 1,0.4 1,1s-0.4,1 -1,1s-1,-0.4 -1,-1s0.4,-1 1,-1zm6,0c0.6,0 1,0.4 1,1s-0.4,1 -1,1s-1,-0.4 -1,-1s0.4,-1 1,-1z" fill="#ffffff" id="svg_1"/>
 </g>
</svg>