<?xml version="1.0"?>
<svg width="16" height="16" xmlns="http://www.w3.org/2000/svg" xmlns:svg="http://www.w3.org/2000/svg">
 <g class="layer">
  <title>Layer 1</title>
  <path d="m9.01,6.99l2.02,4.04l-4.04,-2.02l-2.02,-4.04l4.04,2.02zm0.43,2.45l-0.96,-1.92l-1.92,-0.96l0.96,1.92l1.92,0.96z" fill="#ffffff" id="svg_1"/>
  <path clip-rule="evenodd" d="m13.98,8.5c-0.24,2.91 -2.57,5.24 -5.48,5.48l0,-0.98l-1,0l0,0.98c-2.93,-0.24 -5.26,-2.59 -5.48,-5.52l0.98,0l0,-1l-0.98,0c0.26,-2.9 2.58,-5.2 5.48,-5.44l0,0.98l1,0l0,-0.98c2.91,0.24 5.24,2.57 5.48,5.48l-0.98,0l0,1l0.98,0zm-5.98,6.5c3.87,0 7,-3.13 7,-7c0,-3.87 -3.13,-7 -7,-7c-3.87,0 -7,3.13 -7,7c0,3.87 3.13,7 7,7z" fill="#ffffff" fill-rule="evenodd" id="svg_2" transform="matrix(1 0 0 1 0 0)"/>
 </g>
</svg>