<?xml version="1.0"?>
<svg width="16" height="16" xmlns="http://www.w3.org/2000/svg" xmlns:svg="http://www.w3.org/2000/svg">
 <g class="layer">
  <title>Layer 1</title>
  <path clip-rule="evenodd" d="m4.44,2.53a6.5,6.5 0 1 1 7.22,10.81a6.5,6.5 0 0 1 -7.22,-10.82l0,0.01zm0.55,9.97a5.5,5.5 0 0 0 3.06,0.93a5.51,5.51 0 0 0 5.5,-5.5a5.5,5.5 0 1 0 -8.56,4.57zm5.85,-8.07l0.71,0.71l-2.15,2.15a1.51,1.51 0 1 1 -0.71,-0.71l2.15,-2.15zm-3.07,3.92a0.5,0.5 0 1 0 0.56,-0.84a0.5,0.5 0 0 0 -0.56,0.84zm4.29,-2.45l-0.77,0.76c0.17,0.4 0.26,0.83 0.26,1.27a3.46,3.46 0 0 1 -0.5,1.78l0.73,0.73a4.48,4.48 0 0 0 0.28,-4.54l0,0zm-2.78,-1.23a3.37,3.37 0 0 0 -1.23,-0.24a3.5,3.5 0 0 0 -3.5,3.5a3.46,3.46 0 0 0 0.5,1.78l-0.73,0.73a4.5,4.5 0 0 1 5.73,-6.54l-0.77,0.77z" fill="#ffffff" fill-rule="evenodd" id="svg_1"/>
 </g>
</svg>