<?xml version="1.0"?>
<svg width="16" height="16" xmlns="http://www.w3.org/2000/svg" xmlns:svg="http://www.w3.org/2000/svg">
 <g class="layer">
  <title>Layer 1</title>
  <path clip-rule="evenodd" d="m13.62,3.84a2.87,2.87 0 0 0 -0.45,-0.86l1.35,-1.36l-0.62,-0.62l-1.36,1.35a2.88,2.88 0 0 0 -0.86,-0.45a3.07,3.07 0 0 0 -2.14,0.08a3.03,3.03 0 0 0 -1,0.66l-1.54,1.55l4.33,4.33l1.55,-1.55c0.29,-0.28 0.51,-0.61 0.66,-0.99a3.07,3.07 0 0 0 0.08,-2.14zm-0.89,1.81a2.15,2.15 0 0 1 -0.47,0.7l-0.93,0.93l-3.09,-3.09l0.93,-0.93a2.15,2.15 0 0 1 0.7,-0.47a2.13,2.13 0 0 1 1.69,0.01c0.26,0.11 0.49,0.27 0.69,0.47c0.2,0.2 0.36,0.43 0.47,0.69a2.13,2.13 0 0 1 0.01,1.69zm-4.83,4.99l1.49,-1.54l-0.62,-0.63l-1.49,1.56l-1.86,-1.86l1.49,-1.55l-0.62,-0.62l-1.48,1.54l-0.62,-0.61l-1.55,1.54a3,3 0 0 0 -0.66,1a3.02,3.02 0 0 0 -0.23,1.17c0,0.33 0.05,0.66 0.15,0.97c0.1,0.31 0.25,0.6 0.45,0.86l-1.35,1.36l0.61,0.62l1.36,-1.35c0.27,0.2 0.56,0.35 0.87,0.45c0.31,0.1 0.63,0.15 0.97,0.15c0.4,0 0.79,-0.07 1.17,-0.23c0.37,-0.15 0.71,-0.37 0.99,-0.66l1.55,-1.55l-0.62,-0.62zm-2.26,2.02a2.16,2.16 0 0 1 -0.83,0.17c-0.3,0 -0.59,-0.06 -0.86,-0.17a2.28,2.28 0 0 1 -0.69,-0.47a2.28,2.28 0 0 1 -0.47,-0.69a2.17,2.17 0 0 1 -0.17,-0.86a2.16,2.16 0 0 1 0.64,-1.54l0.93,-0.93l3.09,3.09l-0.93,0.93a2.22,2.22 0 0 1 -0.71,0.47z" fill="#ffffff" fill-rule="evenodd" id="svg_1"/>
 </g>
</svg>