<?xml version="1.0"?>
<svg width="16" height="16" xmlns="http://www.w3.org/2000/svg" xmlns:svg="http://www.w3.org/2000/svg">
 <g class="layer">
  <title>Layer 1</title>
  <path d="m14.88,4.78a3.49,3.49 0 0 0 -0.37,-0.9a3.24,3.24 0 0 0 -0.6,-0.79a3.78,3.78 0 0 0 -1.21,-0.81a3.74,3.74 0 0 0 -2.84,0a4,4 0 0 0 -1.16,0.75l-0.05,0.06l-0.65,0.65l-0.65,-0.65l-0.05,-0.06a4,4 0 0 0 -1.16,-0.75a3.74,3.74 0 0 0 -2.84,0a3.78,3.78 0 0 0 -1.21,0.81a3.55,3.55 0 0 0 -0.97,1.69a3.75,3.75 0 0 0 -0.12,1c0,0.32 0.04,0.63 0.12,0.94a4,4 0 0 0 0.36,0.89a3.8,3.8 0 0 0 0.61,0.79l5.91,5.91l5.91,-5.91c0.24,-0.23 0.44,-0.5 0.6,-0.79a3.58,3.58 0 0 0 0.49,-1.83a3.75,3.75 0 0 0 -0.12,-1zm-1,1.63a2.69,2.69 0 0 1 -0.69,1.21l-5.21,5.2l-5.21,-5.2a2.9,2.9 0 0 1 -0.44,-0.57a3,3 0 0 1 -0.27,-0.65a3.25,3.25 0 0 1 -0.08,-0.69a3.36,3.36 0 0 1 0.08,-0.71a2.8,2.8 0 0 1 0.27,-0.65c0.12,-0.21 0.27,-0.4 0.44,-0.57a2.91,2.91 0 0 1 0.89,-0.6a2.8,2.8 0 0 1 2.08,0c0.33,0.14 0.63,0.34 0.88,0.59l1.36,1.37l1.36,-1.37a2.72,2.72 0 0 1 0.88,-0.59a2.8,2.8 0 0 1 2.08,0c0.33,0.14 0.63,0.35 0.89,0.6c0.17,0.16 0.32,0.36 0.43,0.57a2.69,2.69 0 0 1 0.35,1.34a2.6,2.6 0 0 1 -0.06,0.72l-0.03,0z" fill="#ffffff" id="svg_1"/>
 </g>
</svg>