<?xml version="1.0"?>
<svg width="16" height="16" xmlns="http://www.w3.org/2000/svg" xmlns:svg="http://www.w3.org/2000/svg">
 <g class="layer">
  <title>Layer 1</title>
  <path d="m14.88,4.78c-0.08,-0.32 -0.21,-0.62 -0.37,-0.9c-0.16,-0.29 -0.36,-0.56 -0.6,-0.79c-0.35,-0.35 -0.76,-0.62 -1.21,-0.81c-0.91,-0.37 -1.93,-0.37 -2.84,0c-0.43,0.18 -0.82,0.44 -1.16,0.75l-0.05,0.06l-0.65,0.65l-0.65,-0.65l-0.05,-0.06c-0.34,-0.31 -0.73,-0.57 -1.16,-0.75c-0.91,-0.37 -1.93,-0.37 -2.84,0c-0.45,0.19 -0.86,0.46 -1.21,0.81c-0.24,0.23 -0.44,0.5 -0.61,0.79c-0.16,0.28 -0.28,0.59 -0.36,0.9c-0.08,0.33 -0.13,0.66 -0.12,1c0,0.32 0.04,0.63 0.12,0.94c0.08,0.31 0.2,0.61 0.36,0.89c0.17,0.29 0.37,0.56 0.61,0.79l5.91,5.91l5.91,-5.91c0.24,-0.23 0.44,-0.5 0.6,-0.79c0.16,-0.28 0.29,-0.58 0.37,-0.89c0.08,-0.31 0.12,-0.62 0.12,-0.94c0.01,-0.34 -0.04,-0.67 -0.12,-1z" fill="#ffffff" id="svg_1"/>
 </g>
</svg>