<?xml version="1.0"?>
<svg width="16" height="16" xmlns="http://www.w3.org/2000/svg" xmlns:svg="http://www.w3.org/2000/svg">
 <g class="layer">
  <title>Layer 1</title>
  <path clip-rule="evenodd" d="m8.36,1.37l6.36,5.8l-0.71,0.71l-1.01,-0.92l0,6.53l-0.5,0.5l-3,0l-0.5,-0.5l0,-3.5l-2,0l0,3.5l-0.5,0.5l-3,0l-0.5,-0.5l0,-6.52l-1,0.91l-0.71,-0.71l6.35,-5.8l0.72,0zm-4.36,4.69l0,6.93l2,0l0,-3.5l0.5,-0.5l3,0l0.5,0.5l0,3.5l2,0l0,-6.93l-4,-3.63l-4,3.63z" fill="#ffffff" fill-rule="evenodd" id="svg_1"/>
 </g>
</svg>