<?xml version="1.0"?>
<svg width="16" height="16" xmlns="http://www.w3.org/2000/svg" xmlns:svg="http://www.w3.org/2000/svg">
 <g class="layer">
  <title>Layer 1</title>
  <path d="m4.5,6.5c0,-1.93 1.57,-3.5 3.5,-3.5c1.93,0 3.5,1.57 3.5,3.5c0,0.98 -0.4,1.86 -1.05,2.5c-0.19,0.19 -0.36,0.43 -0.44,0.73l-0.35,1.27l-3.32,0l-0.35,-1.27c-0.08,-0.3 -0.25,-0.54 -0.44,-0.73c-0.65,-0.64 -1.05,-1.52 -1.05,-2.5zm2.11,5.5l2.78,0l-0.17,0.63c-0.06,0.22 -0.26,0.37 -0.48,0.37l-1.48,0c-0.22,0 -0.42,-0.15 -0.48,-0.37l-0.17,-0.63zm1.39,-10c-2.49,0 -4.5,2.01 -4.5,4.5c0,1.26 0.52,2.39 1.34,3.21c0.1,0.09 0.16,0.19 0.19,0.28l0.79,2.9c0.17,0.66 0.77,1.11 1.44,1.11l1.48,0c0.67,0 1.27,-0.45 1.44,-1.11l0.79,-2.9c0.03,-0.09 0.09,-0.19 0.19,-0.28c0.82,-0.82 1.34,-1.95 1.34,-3.21c0,-2.49 -2.01,-4.5 -4.5,-4.5z" fill="#ffffff" id="svg_1"/>
 </g>
</svg>