<?xml version="1.0"?>
<svg width="16" height="16" xmlns="http://www.w3.org/2000/svg" xmlns:svg="http://www.w3.org/2000/svg">
 <g class="layer">
  <title>Layer 1</title>
  <path clip-rule="evenodd" d="m14.23,6.36l-1,0l0,2.5c-0.42,-0.31 -0.94,-0.5 -1.5,-0.5c-1.38,0 -2.5,1.12 -2.5,2.5c0,1.38 1.12,2.5 2.5,2.5c1.38,0 2.5,-1.12 2.5,-2.5l0,-4.5zm-2.5,3c0.83,0 1.5,0.67 1.5,1.5c0,0.83 -0.67,1.5 -1.5,1.5c-0.83,0 -1.5,-0.67 -1.5,-1.5c0,-0.83 0.67,-1.5 1.5,-1.5z" fill="#ffffff" fill-rule="evenodd" id="svg_1"/>
  <path clip-rule="evenodd" d="m13.7,1.36l-8,0.5l-0.47,0.5l0,7.5c-0.42,-0.31 -0.94,-0.5 -1.5,-0.5c-1.38,0 -2.5,1.12 -2.5,2.5c0,1.38 1.12,2.5 2.5,2.5c1.38,0 2.5,-1.12 2.5,-2.5l0,-6.03l7,-0.44l0,0.97l1,0l0,-4.5l-0.53,-0.5zm-0.47,1.03l0,2l-7,0.44l0,-2l7,-0.44zm-9.5,7.97c0.83,0 1.5,0.67 1.5,1.5c0,0.83 -0.67,1.5 -1.5,1.5c-0.83,0 -1.5,-0.67 -1.5,-1.5c0,-0.83 0.67,-1.5 1.5,-1.5z" fill="#ffffff" fill-rule="evenodd" id="svg_2"/>
 </g>
</svg>