<?xml version="1.0"?>
<svg width="16" height="16" xmlns="http://www.w3.org/2000/svg" xmlns:svg="http://www.w3.org/2000/svg">
 <g class="layer">
  <title>Layer 1</title>
  <path d="m14.54,11.81l-1.14,-3.12l0,-0.06l-4.91,-4.91l0,-1.24a1.66,1.66 0 0 0 -0.11,-0.58a1.48,1.48 0 0 0 -0.83,-0.8a1.42,1.42 0 0 0 -0.58,-0.1a1.47,1.47 0 0 0 -1.48,1.48l0,3.26l-3.06,3a1.52,1.52 0 0 0 0,2.12l3.63,3.63c0.14,0.14 0.31,0.25 0.49,0.33a1.53,1.53 0 0 0 1.14,0a1.51,1.51 0 0 0 0.49,-0.33l4.93,-4.92l-0.66,2.2a1.19,1.19 0 0 0 0,0.46c0.03,0.15 0.1,0.3 0.19,0.42c0.1,0.12 0.22,0.22 0.35,0.3c0.14,0.07 0.29,0.11 0.45,0.12a1,1 0 0 0 0.48,-0.09a1.14,1.14 0 0 0 0.39,-0.29a0.98,0.98 0 0 0 0.22,-0.44c0.03,-0.14 0.03,-0.29 0.01,-0.44zm-8,-9.33a0.46,0.46 0 0 1 0,-0.2a0.52,0.52 0 0 1 0.12,-0.17a0.64,0.64 0 0 1 0.18,-0.1a0.5,0.5 0 0 1 0.21,0a0.5,0.5 0 0 1 0.32,0.15a0.5,0.5 0 0 1 0.12,0.33l0,1.26l-1,1l0.05,-2.27zm1,11.35a0.36,0.36 0 0 1 -0.16,0.11a0.47,0.47 0 0 1 -0.38,0a0.36,0.36 0 0 1 -0.16,-0.11l-3.63,-3.62a0.5,0.5 0 0 1 0,-0.71l4.35,-4.35l0,2.85a0.74,0.74 0 0 0 -0.24,0.55a0.75,0.75 0 1 0 1.17,-0.55l0,-2.83l3.85,3.87l-4.8,4.79z" fill="#ffffff" id="svg_1"/>
 </g>
</svg>