<?xml version="1.0"?>
<svg width="16" height="16" xmlns="http://www.w3.org/2000/svg" xmlns:svg="http://www.w3.org/2000/svg">
 <g class="layer">
  <title>Layer 1</title>
  <path d="m6.27,10.87l0.71,0l4.56,-4.56l-0.71,-0.71l-4.2,4.21l-1.92,-1.92l-0.71,0.71l2.27,2.27z" fill="#ffffff" id="svg_1"/>
  <path clip-rule="evenodd" d="m8.6,1c1.6,0.1 3.1,0.9 4.2,2c1.3,1.4 2,3.1 2,5.1c0,1.6 -0.6,3.1 -1.6,4.4c-1,1.2 -2.4,2.1 -4,2.4c-1.6,0.3 -3.2,0.1 -4.6,-0.7c-1.4,-0.8 -2.5,-2 -3.1,-3.5c-0.6,-1.5 -0.7,-3.2 -0.2,-4.7c0.5,-1.6 1.4,-2.9 2.8,-3.8c1.3,-0.9 2.9,-1.3 4.5,-1.2zm0.5,12.9c1.3,-0.3 2.5,-1 3.4,-2.1c0.8,-1.1 1.3,-2.4 1.2,-3.8c0,-1.6 -0.6,-3.2 -1.7,-4.3c-1,-1 -2.2,-1.6 -3.6,-1.7c-1.3,-0.1 -2.7,0.2 -3.8,1c-1.1,0.8 -1.9,1.9 -2.3,3.3c-0.4,1.3 -0.4,2.7 0.2,4c0.6,1.3 1.5,2.3 2.7,3c1.2,0.7 2.6,0.9 3.9,0.6z" fill="#ffffff" fill-rule="evenodd" id="svg_2"/>
 </g>
</svg>