<?xml version="1.0"?>
<svg width="16" height="16" xmlns="http://www.w3.org/2000/svg" xmlns:svg="http://www.w3.org/2000/svg">
 <g class="layer">
  <title>Layer 1</title>
  <path d="m14,5l0,7l-0.28,0c-0.4,0 -0.78,-0.09 -1.11,-0.26a2.53,2.53 0 0 1 -0.88,-0.74l-2.86,0a3.46,3.46 0 0 1 -0.55,0.83a3.69,3.69 0 0 1 -0.73,0.63c-0.27,0.18 -0.57,0.31 -0.88,0.4a3.88,3.88 0 0 1 -0.99,0.14l-0.5,0l0,-4l-3.22,0l-1,-0.5l1,-0.5l3.22,0l0,-4l0.5,0c0.34,0 0.67,0.05 0.98,0.14c0.31,0.09 0.61,0.23 0.88,0.4a3.4,3.4 0 0 1 1.29,1.46l2.86,0a2.56,2.56 0 0 1 0.87,-0.73c0.34,-0.18 0.71,-0.26 1.12,-0.27l0.28,0zm-0.78,1.09a1.22,1.22 0 0 0 -0.32,0.15a1.49,1.49 0 0 0 -0.43,0.46l-0.18,0.3l-4.11,0l-0.11,-0.34a2.46,2.46 0 0 0 -0.72,-1.04c-0.32,-0.29 -0.92,-0.53 -1.35,-0.62l0,7c0.43,-0.09 1.03,-0.33 1.36,-0.62c0.32,-0.28 0.56,-0.63 0.71,-1.04l0.11,-0.34l4.11,0l0.18,0.3c0.05,0.09 0.12,0.17 0.19,0.25c0.07,0.07 0.15,0.14 0.24,0.21c0.09,0.07 0.2,0.12 0.32,0.15l0,-4.82z" fill="#ffffff" id="svg_1"/>
 </g>
</svg>