<?xml version="1.0"?>
<svg width="16" height="16" xmlns="http://www.w3.org/2000/svg" xmlns:svg="http://www.w3.org/2000/svg">
 <g class="layer">
  <title>Layer 1</title>
  <path clip-rule="evenodd" d="m14.77,3.48l-0.78,-0.18l-2.11,2.1l-1.19,-1.22l2.06,-2.16l-0.18,-0.79a4.42,4.42 0 0 0 -1.35,-0.23a3.64,3.64 0 0 0 -1.46,0.28a3.82,3.82 0 0 0 -1.18,0.84a3.74,3.74 0 0 0 -0.88,1.27a3.94,3.94 0 0 0 0,2.97a335.34,335.34 0 0 0 -6.17,6.23c-0.21,0.27 -0.31,0.62 -0.29,0.96a1.4,1.4 0 0 0 0.47,0.97c0.12,0.13 0.27,0.25 0.44,0.33c0.17,0.07 0.35,0.11 0.53,0.12c0.32,0 0.62,-0.12 0.86,-0.33c1.55,-1.46 4.51,-4.45 6.2,-6.21c0.45,0.2 0.95,0.3 1.44,0.3a3.74,3.74 0 0 0 2.68,-1.14a3.88,3.88 0 0 0 1.11,-2.73a4.21,4.21 0 0 0 -0.2,-1.38zm-11.84,10.45a0.31,0.31 0 0 1 -0.13,0.07a0.44,0.44 0 0 1 -0.15,0a0.35,0.35 0 0 1 -0.15,-0.06a0.34,0.34 0 0 1 -0.11,-0.11c-0.14,-0.14 -0.27,-0.41 -0.14,-0.57c1.37,-1.45 4.19,-4.3 5.96,-6.04c0.1,0.13 0.21,0.26 0.32,0.37c0.12,0.13 0.25,0.24 0.38,0.34c-1.7,1.75 -4.48,4.57 -5.98,6zm11.12,-9.07c0,0.77 -0.29,1.5 -0.83,2.05a2.86,2.86 0 0 1 -4.01,0a2.99,2.99 0 0 1 -0.63,-3.14a2.75,2.75 0 0 1 1.56,-1.59a2.76,2.76 0 0 1 1.07,-0.21l0.26,0l-1.82,1.87l0,0.7l1.89,1.88l0.66,0l1.85,-1.81l0,0.25zm-10.81,1.83l1.53,0l0.71,0.71l0.67,-0.67l-0.66,-0.68l0,-0.04l0.06,-1.65l-0.22,-0.44l-2.86,-1.88l-0.59,0.07l-0.84,0.85l-0.06,0.6l1.84,2.91l0.42,0.22zm-0.95,-3.63l2.32,1.52l-0.04,1.12l-1.08,0l-1.49,-2.36l0.29,-0.28zm7.11,6.96l0.67,-0.68l3.11,3.19a1.48,1.48 0 0 1 0,2.04a1.4,1.4 0 0 1 -1.55,0.31a1.31,1.31 0 0 1 -0.44,-0.31l-3.14,-3.21l0.68,-0.67l3.13,3.19a0.4,0.4 0 0 0 0.16,0.1a0.48,0.48 0 0 0 0.36,0a0.4,0.4 0 0 0 0.15,-0.1a0.44,0.44 0 0 0 0.1,-0.15a0.53,0.53 0 0 0 0.03,-0.19a0.55,0.55 0 0 0 -0.03,-0.18a0.44,0.44 0 0 0 -0.1,-0.15l-3.13,-3.19z" fill="#ffffff" fill-rule="evenodd" id="svg_1"/>
 </g>
</svg>