<?xml version="1.0"?>
<svg width="16" height="16" xmlns="http://www.w3.org/2000/svg" xmlns:svg="http://www.w3.org/2000/svg">
 <g class="layer">
  <title>Layer 1</title>
  <path clip-rule="evenodd" d="m1.5,4.83l2.79,0l3.86,-3.83l0.85,0.35l0,13l-0.85,0.33l-3.86,-3.85l-2.79,0l-0.5,-0.5l0,-5l0.5,-0.5zm3.35,5.17l3.15,3.14l0,-10.58l-3.15,3.12l-0.35,0.15l-2.5,0l0,4l2.5,0l0.35,0.17zm10.15,-2.17a6.97,6.97 0 0 1 -1.58,4.43l-0.71,-0.71a5.97,5.97 0 0 0 1.29,-3.72c0,-1.4 -0.48,-2.69 -1.28,-3.71l0.71,-0.71a6.97,6.97 0 0 1 1.57,4.42zm-2,0a4.98,4.98 0 0 1 -1,3l-0.72,-0.71a3.98,3.98 0 0 0 0.72,-2.29a3.98,3.98 0 0 0 -0.71,-2.28l0.71,-0.72c0.63,0.84 1,1.88 1,3zm-2,0c0,0.57 -0.16,1.11 -0.44,1.57l-0.74,-0.74a1.99,1.99 0 0 0 0.01,-1.65l0.74,-0.74c0.27,0.46 0.43,0.99 0.43,1.56z" fill="#ffffff" fill-rule="evenodd" id="svg_1"/>
 </g>
</svg>