<?xml version="1.0"?>
<svg width="24" height="24" xmlns="http://www.w3.org/2000/svg" xmlns:svg="http://www.w3.org/2000/svg">
 <g class="layer">
  <title>Layer 1</title>
  <path clip-rule="evenodd" d="m18.03,9.53l3.18,0.64l0,3.73l-3.18,0.64l1.8,2.71l-2.63,2.64l-2.7,-1.81l-0.64,3.2l-3.71,0l-0.64,-3.2l-2.7,1.81l-2.63,-2.64l1.8,-2.71l-3.18,-0.64l0,-3.73l3.18,-0.64l-1.8,-2.71l2.63,-2.64l2.7,1.81l0.64,-3.2l3.71,0l0.64,3.2l2.7,-1.81l2.63,2.64l-1.8,2.71zm-1.2,3.9l3.07,-0.62l0,-1.54l-3.07,-0.62l-0.41,-1l1.76,-2.64l-1.1,-1.1l-2.63,1.76l-1,-0.42l-0.62,-3.08l-1.53,0l-0.62,3.08l-1,0.42l-2.63,-1.76l-1.1,1.1l1.76,2.64l-0.41,1l-3.07,0.62l0,1.54l3.07,0.62l0.41,1l-1.76,2.64l1.1,1.1l2.63,-1.76l1,0.42l0.62,3.08l1.53,0l0.62,-3.08l1,-0.42l2.63,1.76l1.1,-1.1l-1.76,-2.64l0.41,-1zm-6.28,-3.6a2.63,2.64 0 0 1 1.46,-0.45a2.64,2.65 0 0 1 2.63,2.64a2.63,2.64 0 1 1 -4.09,-2.2zm0.74,3.29c0.21,0.15 0.47,0.22 0.73,0.22a1.3,1.31 0 0 0 1.31,-1.32a1.31,1.32 0 1 0 -2.04,1.09z" fill-rule="evenodd" id="svg_1"/>
 </g>
</svg>