<?xml version="1.0" encoding="UTF-8"?>
<svg id="Ebene_1" xmlns="http://www.w3.org/2000/svg" version="1.1" viewBox="0 0 800 800">
  <!-- Generator: Adobe Illustrator 29.0.0, SVG Export Plug-In . SVG Version: 2.1.0 Build 186)  -->
  <defs>
    <style>
      .st0 {
        fill: #010101;
      }

      .st1 {
        fill: #030303;
      }

      .st2 {
        fill: #060606;
      }

      .st3 {
        fill: #ffd200;
      }

      .st4 {
        fill: #040404;
      }

      .st5 {
        fill: #fefefe;
      }
    </style>
  </defs>
  <path class="st0" d="M708.2,449.5c4.7,4.5,5,29.1,6.1,30.2,2,2,61-1,51.3,12-1.4,1.9-39.7,17.6-42,21.6-1.5,2.7,8.9,29.6,9.7,36.5.5,3.9,3.6,4.3-2.5,8.4-13.8-5.2-22.7-17.5-33.1-27-5.5,4.3-35.3,32.3-40.7,27-1-14.8,18.9-33.4,18.1-46.5-.9-14.9-22.4-19.9-21.1-34.9,7.8-1.7,34.3,2.5,38.8-.4,1.8-1.2,8.2-33.7,15.5-26.7h0Z"/>
  <path d="M634.1,549.2h0c-15.6-23.3-80,2.3-103.9,2.8-4.7-5.4,28.3-114.2,24-140.2-1-6.2-7.9-9.5-5.5-17.6,1.2-4.1,18.4-15.2,23.7-21.8,17.4-21.7,18.8-56.5-5.9-72.3,47.2-39-9.1-101.4-55.8-101.4l-86.2,7.6-14.9,101.3-17.7-76.7c-22.2-1.3-11.4-4.5-20.4-20.1l-71.5,6.1c-4.4,1-5.8,19.2-8.4,20.8-3.1,1.9-16.8-.6-22.2,3.5l1.5-21.2c-19.8,5.1-149.5,9.1-156.2,15.8-4,4-4,30.9-6.7,38.5l21.1-3-3,21.1,21.1-3-15.1,126.7c4.8,2.8,17.5-3.8,18.1-3,7,10.2-8.5,8.8-14.2,11.3-35.4,16-75.8,109.7-78.9,147.4-3.2,38.8,12.6,73.3,57,63,22.1-5.1,92.4-57.3,96.5-80,0,0,0,0,0-.1.9-5.3.8-23.1-1.5-27.1-4.8-8.2-19.2-2.6-22.6-9,12.5,1.2,24.4-10.5,34.7-12.2,4.7-.8,5-.5,4.1,4.1-2.6,13.4-10.2,31.3-11.6,44.3h0c-1.9,18-2.5,80.9,10,92.6,12.3,11.4,31.3,6.2,34.7-10.3,2-9.5-2.8-15.9-1.9-22.8.9-6.7,10.7-26.5,13.1-38.3,6.9-33.2,5.4-70.4,24.1-99.7,6.5,7.1,31.2,16.3,31.7,22.6.2,2.4-8.2,45.1-9.3,47.5-4.3,9.4-30.4,15.7-26.5,39.3,4.2,25.7,30.2,19.6,35.3,23.8,1.7,1.4.4,14.6,8.4,17.2,27.2,9,22.5-26,33.2-32.2,6-3.5,86.2-22.3,93-21.6,4.5,6.5-1.4,15.3-1.2,22.4.7,25.3,22.9,38.3,46.3,34.8,35.2-21.1,86.1-31.9,120.1-51.9,12.6-7.3,18.7-15.7,9.6-29.2ZM150,537h0s9.1-24.1,9.1-24.1l18.1,9.1-27.1,15ZM273.6,284.9l-42.2,116.3c-2.7,13.4,19.7,1.4,21.1,3,2.5,2.9-2.6,20.5-8,23.6-1.6.9-30.7,9.6-32.4,9.6-2.3,0-2.9-6.7-4.8-9.1,20.7,4,18.5-10.6,21.1-27.2,2.5-15.7,10-115.9,14.9-119.4,3.2-2.2,21-2,25.9-1.3,4.2.6,5.1-1.7,4.4,4.4h0ZM346.1,413.3h0c-6.8-3.1-40.5,4.3-42.1,2.9-5.9-5.1-3.5-42.6,16.4-39.2,13.1,2.2,5.5,19.1,7.6,21.3.9,1,14.4-.7,18.1,0v15.1ZM382.3,497.8c-4.9-43.9,25-36.4,57.3-39.2-15.3,17.5-38.2,26.5-57.3,39.2ZM448.7,518.8c1.2-4.2,22-20.5,24.1-18.1.9,21-5.8,19.3-24.1,18.1ZM500,425.3h0c-34.2-19.1-67.4-7.9-102.6-7.3-4.5,0-7.4,1.5-9-4.7l117.7-12.1-6,24.1Z"/>
  <path class="st5" d="M533.2,280.5c17.6,14.3,29.1,26.7,22.7,51.4-13.3,51.4-105.3,45.3-146.4,48.2l21.1-165.9c9.5-.6,19.1.7,28.6,0,25-2.1,65-12.2,85.9,4.7,20.3,16.4,12.9,54-11.9,61.8h0Z"/>
  <path class="st5" d="M367.1,223.3l30.3,159.8-60.3,6.1-7.6-42.3c-15.4,7.3-40.8-4.3-49,11.3-11.1,20.9-1.1,43.8-36.9,37l60.7-168.6,62.9-3.2h0Z"/>
  <path class="st5" d="M258.6,232.2c8.8,30.3-38.1,16.5-42.6,22.9l-17.8,146.1-57.3,3,18.1-144.8-39.2,3c-.3-5.5.4-14.2,4.5-18.2,5.5-5.5,117.3-10.1,134.4-12h0Z"/>
  <path class="st3" d="M491,576.2c1.9,2,41.9-18.8,53.1-18,16.9,1.2,1.5,16.8-5.1,22.2-5.7,4.7-46.5,32.3-50.9,33.7-24.8,7.9-19.3-32.3-17.9-48.2,3-33.4,31-135.3,47.3-163.9,6.5-11.5,22.7-21,21.2-3.3-2.3,26.6-26.9,80-34.8,110.3-5.8,22.1-11.2,44.2-12.9,67h0Z"/>
  <path class="st3" d="M708.6,488.3c4.5,2.8,18.8-3.4,23.7,4.9.5,1.1-19.8,9.4-20.9,10.9-2.1,2.9,8,18,5.8,23.8-17.6-11.6-18.9-16.4-36.2,0-2.7-8.4,5.8-16.4,5.8-22.6,0-8.2-9.3-11.8-8.9-19.6,23,6.7,13.9.5,27.1-12.1.3,3.2,1.7,13.6,3.5,14.7h0Z"/>
  <path class="st3" d="M428.6,426.5c-18.3-.2-57.4,9.1-68.9,7.9-5.8-.6-8.2-6.5-12.8-8.4-18.2-7.5-61.6,2.5-82.3,6.8-11.7,2.5-53.1,16.9-58.8,16.7-3.3-.1,1.6-21.4-24.3-12.3-32,11.3-69.7,84.5-73.5,116.6-8,68.3,37,62.2,74.1,24.3,11-11.3,36.6-48.4,5.7-47.4-21,.7-32.3,22.2-49.9,30.3,3-40.3,22.5-84.3,52.8-111.6l-13.6,45.2c9.2,3.4,15.3-18.5,16.6-18.1,15.9,8.8,51.4,5.5,57.6,30,2.6,10.6-13.6,59.1-14,77-.5,20.5,9.4,34.2,18.1,9,10.4-30.1,8.7-69.2,16.2-101.5,1.9-8,4-25.5,10.1-29.2,2.8-1.7,30-7.4,31.2-6.5-23.5,48.6,30.1,2.8,33.2,6-3.8,17-10.6,33.7-14.2,50.7-2.6,12.3-13.9,68.1-2.4,73,10.5,4.5,11.4-20,13.6-27.1,20,16.4,109.2,15.7,119.1-6.1,3-6.5,2.4-16.5-4.6-19.8-4.3-2-6.4,1.7-7.4,1.7h-55.8c40.6-28.6,164.7-105.8,34.2-107.5h0ZM352.1,521.9l10.8-66.7c11.8-8.3,77.5-10.6,93.4-8.8,3,.3,10.4,1.4,10.4,4.7,0,7.1-97.9,69.7-114.6,70.9h0Z"/>
  <path class="st2" d="M261.6,467.6l-6.1,27.1-24.1-15.1c-2.8-4.1,26.1-13.1,30.2-12Z"/>
  <path class="st1" d="M490.1,355c-6.3,5.1-15.8,3.8-23.3,3.9,5.5-16.4,3.2-36.7,6-52.8,2.5-14.2,27.3-10.5,29.6,9.9,1.1,9.3-5.2,33.2-12.4,39h0Z"/>
  <path class="st1" d="M502.5,229.7c14.3,8.6,2.1,58.8-23.6,50.8-1.8-1.8,3.8-47,5.7-49.6,2.2-3,15.3-2.8,18-1.2h0Z"/>
  <polygon class="st4" points="328 328.7 291.8 331.8 312.9 262.4 328 328.7"/>
  <g>
    <path d="M413.9,125.9l-7.3,3.4-1.2-2.6,17.8-8.2,1.2,2.6-7.4,3.4,9.9,21.4-3.1,1.4-9.9-21.4h0Z"/>
    <path d="M437.7,132.6v8.8c-.1,0-3.5,1.1-3.5,1.1l.6-28,3.9-1.2,16.5,22.6-3.5,1.1-5.2-7.1-9,2.8h0ZM445.2,127.4l-4.8-6.5c-1.1-1.5-1.9-2.8-2.8-4.2h0c.1,1.6.2,3.3.2,5l-.2,8.1,7.6-2.4h0Z"/>
    <path d="M456.9,108.9c1.4-.5,3.7-1.1,6.1-1.5,3.4-.5,5.6-.3,7.5.8,1.5.8,2.6,2.2,2.9,4.3.4,2.5-.9,5-3.5,6.4h0c2.6.3,5.8,1.9,6.4,5.8.4,2.2-.3,4.1-1.4,5.6-1.6,1.9-4.4,3.2-8.7,3.9-2.3.4-4.1.5-5.3.5l-4-25.8h0ZM461.9,119.1l3.1-.5c3.6-.6,5.4-2.7,5-5.3-.5-3.1-3-3.9-6.4-3.4-1.5.2-2.4.5-3,.7l1.3,8.4h0ZM463.9,131.6c.7,0,1.6-.1,2.9-.3,3.5-.5,6.5-2.3,5.9-6.1-.6-3.6-3.9-4.6-7.5-4l-2.8.4,1.5,10h0Z"/>
    <path d="M483.3,105.3h3.4c0,0,.5,23.5.5,23.5l11.3-.2v2.9c0,0-14.7.3-14.7.3l-.5-26.5h0Z"/>
    <path d="M509.5,124l-3.7,7.9-3.5-.4,12.1-25.2,4.1.5,5.8,27.4-3.6-.4-1.8-8.6-9.3-1.1h0ZM518.4,122.4l-1.7-7.9c-.4-1.8-.6-3.4-.8-5h0c-.6,1.5-1.2,3.1-1.9,4.6l-3.5,7.3,7.9,1h0Z"/>
    <path d="M537.7,113.3l-7.8-2,.7-2.8,19,4.8-.7,2.8-7.8-2-5.8,22.9-3.3-.9,5.8-22.9h0Z"/>
    <path d="M560.9,117.4l-6,14.5c-2.3,5.5-.8,8.8,2.4,10.2,3.6,1.5,7,0,9.2-5.3l6-14.5,3.2,1.3-6,14.2c-3.1,7.5-8.4,8.9-13.7,6.7-5-2.1-7.6-6.5-4.4-14.1l6-14.4,3.2,1.3h0Z"/>
    <path d="M586,129.4c1.7.6,3.9,1.7,5.9,3,3.1,1.9,4.8,3.7,5.4,5.9.5,1.7.2,3.6-.8,5.4-1.8,3-4.9,3.8-7.8,3.2h0c1.4,1.8,1.4,4,.5,6.7-1.2,3.6-2,6.1-2.1,7.3l-3-1.9c0-.9.7-3.1,1.8-6.3,1.2-3.5.8-5.4-1.8-7.2l-2.8-1.7-6,9.8-2.9-1.8,13.7-22.3h0ZM582.6,141.5l3,1.8c3.1,1.9,6.1,1.4,7.7-1.2,1.8-2.9.5-5.5-2.6-7.4-1.4-.9-2.5-1.4-3-1.5l-5,8.2h0Z"/>
    <path d="M610,163.2l-8-6.5-6,7.4,8.9,7.3-1.8,2.2-11.5-9.4,16.8-20.5,11.1,9.1-1.8,2.2-8.4-6.9-5.3,6.5,8,6.5-1.8,2.2h0Z"/>
    <path d="M652.1,190.8l-22,14.7-1.9-2.8,22-14.7,1.9,2.8h0Z"/>
    <path d="M634.5,212.2l23.6-12,1.7,3.3-8.1,13.6c-1.9,3.2-3.7,5.8-5.5,8.1h0c3-1.8,5.8-3.4,9.5-5.2l9.9-5,1.5,2.9-23.6,12-1.6-3.1,8.2-13.6c1.8-3,3.7-5.9,5.6-8.4h0c-2.9,1.6-5.7,3.1-9.6,5.1l-10.1,5.1-1.5-2.9h0Z"/>
    <path d="M670.2,234.5l-2.5-7.6,2.8-.9,6.2,18.6-2.8.9-2.5-7.7-22.4,7.4-1.1-3.3,22.4-7.4h0Z"/>
    <path d="M667.2,268.8l-1.9-10.1-9.4,1.8,2.1,11.3-2.8.5-2.8-14.6,26-4.9,2.7,14.1-2.8.5-2-10.7-8.2,1.6,1.9,10.1-2.8.5h0Z"/>
    <path d="M682,277.2c.4,1.7.8,4.2.9,6.5.2,3.6-.4,6-1.8,7.8-1.1,1.4-2.9,2.2-4.9,2.3-3.5.2-5.9-1.9-7-4.6h-.1c-.6,2.1-2.4,3.4-5.1,4.2-3.6,1-6.2,1.8-7.2,2.4l-.2-3.5c.7-.5,3-1.2,6.2-2.1,3.6-1,4.9-2.5,4.9-5.6l-.2-3.2-11.5.6-.2-3.4,26.1-1.3h0ZM670.1,281.2l.2,3.5c.2,3.6,2.3,5.9,5.3,5.7,3.4-.2,4.8-2.7,4.6-6.3,0-1.6-.3-2.8-.5-3.4l-9.7.5Z"/>
    <path d="M682.9,303.7l-1.2,14.2-2.9-.2.9-10.8-8.8-.7-.8,10-2.8-.2.8-10-11.9-1,.3-3.4,26.4,2.2h0Z"/>
    <path d="M662.1,325.3l-7.6-4.4.7-3.5,24.1,14.3-.8,4-27.8,3.4.8-3.6,8.7-1,1.9-9.2h0ZM663,334.4l8-1c1.8-.2,3.4-.3,5-.4h0c-1.5-.8-2.9-1.5-4.4-2.4l-7-4.1-1.6,7.8h0Z"/>
    <path d="M643.4,361.6c-.2-1.4.1-4,1.3-7,2.6-7,9-10.6,17.1-7.5,7.8,2.9,11.1,10.1,8.2,17.8-1.2,3.1-2.5,4.8-3.3,5.5l-2.3-1.8c1-1,2.1-2.6,2.9-4.6,2.2-5.8,0-11.1-6.6-13.5-6.1-2.3-11.3-.2-13.5,5.8-.7,2-1.1,4.1-.9,5.6l-2.8-.3h0Z"/>
    <path d="M644.2,384.7l4.9-9-8.4-4.6-5.5,10.1-2.5-1.4,7.1-13.1,23.3,12.7-6.8,12.6-2.5-1.4,5.2-9.6-7.3-4-4.9,9-2.5-1.4h0Z"/>
  </g>
</svg>