<?xml version="1.0"?>
<svg width="483.095" height="483.095" xmlns="http://www.w3.org/2000/svg" xmlns:svg="http://www.w3.org/2000/svg" version="1.1" xml:space="preserve">
 <g class="layer">
  <title>Layer 1</title>
  <g id="SVGRepo_bgCarrier" stroke-width="0"/>
  <g id="SVGRepo_tracerCarrier" stroke-linecap="round" stroke-linejoin="round"/>
  <g id="SVGRepo_iconCarrier">
   <g id="svg_1">
    <g id="svg_2">
     <path d="m379.92,126.36c8.19,-7.27 19.26,-9 27.54,-4.84l1.59,-1.55c4.98,-11.93 13.99,-25.12 26.47,-37.29c12.49,-12.18 26.02,-20.96 38.25,-25.82c0,0 2.4,-2.35 5.38,-5.26c2.98,-2.91 1.18,-9.36 -4.03,-14.43l-30.58,-29.82c-5.19,-5.07 -11.79,-6.85 -14.73,-3.99l-5.33,5.2c-4.97,11.96 -14,25.23 -26.55,37.47c-12.55,12.23 -26.15,21.04 -38.43,25.9l-1.1,1.06c5.27,8.17 3.64,19.81 -4.24,28.25l-82.15,79.64c-3.55,-0.22 -9.27,-3.01 -16.91,-14.57c-13.67,-20.66 -45.57,-32.42 -71.85,12.03c-26.28,44.44 -4.49,51.79 -79.32,60.27l0.02,0.03c-26.43,1.41 -51.46,11.27 -70.56,29.88c-45.3,44.18 -40.13,120.83 11.53,171.23c51.67,50.38 130.29,55.42 175.59,11.24c0.81,-0.79 1.59,-1.63 2.37,-2.44l0.01,0.03c0,0 0.31,-0.32 0.79,-0.86c3.63,-3.87 6.89,-7.95 9.79,-12.24c11.66,-16.14 28.3,-45.15 24.57,-75.45c-5.63,-45.75 38.34,-43.66 56.57,-55.17c18.22,-11.49 24.66,-21.42 25.19,-32.94c0,0 -21.71,14.9 -41.55,-4.44c-15.95,-15.55 -8.86,-42.04 -1.98,-56.06l83.65,-85.06z" fill="#3f3f3f" id="svg_3"/>
    </g>
   </g>
  </g>
 </g>
</svg>