<?xml version="1.0"?>
<svg width="483.095" height="483.095" xmlns="http://www.w3.org/2000/svg" xmlns:svg="http://www.w3.org/2000/svg" version="1.1" xml:space="preserve">
 <g class="layer">
  <title>Layer 1</title>
  <g id="SVGRepo_bgCarrier" stroke-width="0"/>
  <g id="SVGRepo_tracerCarrier" stroke-linecap="round" stroke-linejoin="round"/>
  <g id="SVGRepo_iconCarrier" opacity="0.15">
   <g id="svg_1">
    <g id="svg_2">
     <path d="m218.24,70.55c4.67,-4.01 11.01,-4.96 15.75,-2.67l0.91,-0.85c2.84,-6.57 8.01,-13.85 15.13,-20.55c7.14,-6.72 14.87,-11.56 21.86,-14.24c0,0 1.37,-1.3 3.07,-2.9c1.7,-1.6 0.67,-5.17 -2.3,-7.95l-17.48,-16.44c-2.96,-2.8 -6.73,-3.77 -8.41,-2.19l-3.04,2.86c-2.84,6.59 -8.01,13.9 -15.18,20.65c-7.17,6.73 -14.95,11.6 -21.97,14.28l-0.62,0.59c3.01,4.51 2.07,10.92 -2.42,15.58l-46.95,43.91c-2.03,-0.13 -5.29,-1.66 -9.67,-8.03c-7.81,-11.39 -26.04,-17.87 -41.07,6.64c-15.01,24.5 -2.57,28.55 -45.34,33.22l0.02,0.02c-15.11,0.78 -29.42,6.21 -40.34,16.48c-25.9,24.36 -22.94,66.6 6.6,94.39c29.54,27.77 74.48,30.55 100.36,6.19c0.46,-0.43 0.91,-0.9 1.36,-1.34l0,0.02c0,0 0.18,-0.18 0.46,-0.48c2.07,-2.13 3.94,-4.38 5.6,-6.75c6.67,-8.89 16.17,-24.89 14.05,-41.59c-3.22,-25.22 21.91,-24.07 32.33,-30.41c10.42,-6.33 14.1,-11.8 14.39,-18.15c0,0 -12.42,8.21 -23.76,-2.45c-9.12,-8.57 -5.06,-23.18 -1.13,-30.9l47.82,-46.88l-0.03,-0.05z" fill="#bfbfbf" id="svg_3"/>
    </g>
   </g>
  </g>
 </g>
</svg>