<?xml version="1.0"?>
<svg width="256" height="256" xmlns="http://www.w3.org/2000/svg" xmlns:svg="http://www.w3.org/2000/svg">
 <g class="layer">
  <title>Layer 1</title>
  <g fill-rule="evenodd" id="svg_1">
   <path d="m46.89,218.33c-0.43,2.16 1.01,3.91 3.22,3.89l121.56,-0.94c2.21,-0.01 3.68,-1.79 3.28,-3.97l-11.83,-64.91c-0.4,-2.18 -1.63,-2.39 -2.75,-0.49l-9.16,15.58c-1.12,1.91 -1.71,5.21 -1.31,7.39l4.92,27.03c0.39,2.18 -1.08,3.94 -3.29,3.94l-80.49,0c-2.21,0 -3.66,-1.76 -3.23,-3.92l29.47,-149.94l28.44,-0.49l11.79,44.43c0.56,2.14 2.01,2.39 3.23,0.54l8.39,-12.67c1.22,-1.84 1.73,-5.06 1.14,-7.19l-9.59,-34.5c-1.19,-4.25 -5.74,-7.67 -10.14,-7.63l-39.39,0.34c-4.42,0.04 -8.69,3.59 -9.55,7.92l-34.71,175.59z" fill="#ffffff" id="svg_2"/>
   <path d="m100.55,188.4c-1.19,1.86 -0.35,3.37 1.86,3.37l12.4,0c2.21,0 4.96,-1.52 6.14,-3.39l64.55,-102.46c1.18,-1.87 3.9,-3.7 6.07,-4.07l9.58,-1.67c2.18,-0.38 4.5,-2.38 5.18,-4.5l4.77,-14.69c0.69,-2.1 -0.06,-5.03 -1.67,-6.55l-11.47,-10.81c-1.61,-1.51 -4.48,-1.86 -6.4,-0.78l-11.8,6.66c-1.92,1.08 -3.63,3.75 -3.8,5.95l-0.94,11.97c-0.17,2.2 -1.27,5.5 -2.45,7.36l-72.03,113.61l0.01,0z" fill="#ffffff" id="svg_3"/>
  </g>
 </g>
</svg>